<svg width="44" height="44" viewBox="0 0 44 44" fill="none" xmlns="http://www.w3.org/2000/svg">
    <path
        d="M7.333 33q-.78 0-1.305-.528a1.77 1.77 0 0 1-.528-1.305q0-.78.528-1.306.526-.528 1.305-.528h29.334q.78 0 1.305.528.528.526.528 1.306t-.528 1.305a1.77 1.77 0 0 1-1.305.528zm0-9.167q-.78 0-1.305-.528Q5.5 22.78 5.5 22t.528-1.307q.526-.526 1.305-.526h29.334q.78 0 1.305.526.528.528.528 1.307 0 .78-.528 1.305a1.77 1.77 0 0 1-1.305.528zm0-9.166q-.78 0-1.305-.527a1.78 1.78 0 0 1-.528-1.307q0-.78.528-1.307Q6.554 11 7.333 11h29.334q.78 0 1.305.526.528.528.528 1.307 0 .78-.528 1.307-.526.527-1.305.527z"
        fill="#1A5AA1" />
</svg>